<svg xmlns="http://www.w3.org/2000/svg" viewBox="0 0 1200 360" width="1200" height="360" role="img" aria-label="Beholden — see who represents you, and what they've actually done. Every fact cited.">
  <defs>
    <clipPath id="frame"><rect x="0" y="0" width="1200" height="360"/></clipPath>
    <linearGradient id="fade" x1="0" y1="0" x2="1" y2="0">
      <stop offset="0.38" stop-color="#06131d" stop-opacity="1"/>
      <stop offset="0.60" stop-color="#06131d" stop-opacity="0"/>
    </linearGradient>
  </defs>
  <g clip-path="url(#frame)" font-family="'Helvetica Neue',Arial,sans-serif">
    <rect width="1200" height="360" fill="#06131d"/>

    <!-- district motif behind, right side (matched-luminance party fills; one selected in amber) -->
    <g opacity="0.85" stroke="#0e3a52" stroke-width="1.5">
      <polygon points="742,30 880,18 900,104 792,132" fill="#4b83bd" fill-opacity="0.5"/>
      <polygon points="900,104 880,18 1044,34 1016,132" fill="#c25b5b" fill-opacity="0.5"/>
      <polygon points="1016,132 1044,34 1200,58 1200,176 1066,196" fill="#4b83bd" fill-opacity="0.5"/>
      <polygon points="792,132 900,104 922,214 812,244" fill="#c25b5b" fill-opacity="0.5"/>
      <polygon points="922,214 1016,132 1066,196 1030,300 922,300" fill="#4b83bd" fill-opacity="0.5"/>
      <polygon points="812,244 922,214 922,300 782,300" fill="#c25b5b" fill-opacity="0.5"/>
    </g>

    <!-- dossier card: the payoff of a click, shown not told -->
    <g>
      <rect x="726" y="70" width="404" height="230" rx="14" fill="#0e2536" stroke="#17384f" stroke-width="1.5"/>
      <!-- header -->
      <circle cx="762" cy="112" r="21" fill="#123049" stroke="#17384f"/>
      <rect x="796" y="99" width="150" height="13" rx="3" fill="#eaf2f8" opacity="0.85"/>
      <rect x="796" y="120" width="98" height="9" rx="3" fill="#8ba3b4" opacity="0.55"/>
      <rect x="1066" y="99" width="40" height="20" rx="5" fill="#f2b134"/>
      <line x1="746" y1="150" x2="1110" y2="150" stroke="#17384f" stroke-width="1"/>
      <!-- rows: label + a data glyph + a green "cited" pill -->
      <g font-family="ui-monospace,'SF Mono',Menlo,monospace" font-size="14">
        <!-- ideology -->
        <text x="748" y="182" fill="#9fb2c0">Ideology</text>
        <line x1="880" y1="177" x2="1024" y2="177" stroke="#2a4459" stroke-width="3" stroke-linecap="round"/>
        <circle cx="964" cy="177" r="5" fill="#f2b134"/>
        <!-- key votes -->
        <text x="748" y="216" fill="#9fb2c0">Key votes</text>
        <rect x="880" y="205" width="14" height="14" rx="2" fill="#4b83bd"/>
        <rect x="900" y="205" width="14" height="14" rx="2" fill="#c25b5b"/>
        <rect x="920" y="205" width="14" height="14" rx="2" fill="#4b83bd"/>
        <rect x="940" y="205" width="14" height="14" rx="2" fill="#4b83bd"/>
        <!-- money -->
        <text x="748" y="250" fill="#9fb2c0">Top donors</text>
        <rect x="880" y="240" width="120" height="9" rx="3" fill="#123049"/>
        <rect x="880" y="240" width="78" height="9" rx="3" fill="#4b83bd"/>
        <!-- committees -->
        <text x="748" y="284" fill="#9fb2c0">Committees</text>
        <circle cx="886" cy="279" r="4" fill="#8ba3b4"/><line x1="892" y1="279" x2="1004" y2="279" stroke="#2a4459" stroke-width="2"/>
      </g>
      <!-- one shared "every row is cited" marker -->
      <g font-family="ui-monospace,'SF Mono',Menlo,monospace" font-size="12" font-weight="700">
        <rect x="1034" y="169" width="70" height="20" rx="10" fill="#0c2b22" stroke="#56b98a"/>
        <text x="1046" y="183" fill="#56b98a">✓ cited</text>
        <rect x="1034" y="203" width="70" height="20" rx="10" fill="#0c2b22" stroke="#56b98a"/>
        <text x="1046" y="217" fill="#56b98a">✓ cited</text>
        <rect x="1034" y="237" width="70" height="20" rx="10" fill="#0c2b22" stroke="#56b98a"/>
        <text x="1046" y="251" fill="#56b98a">✓ cited</text>
        <rect x="1034" y="271" width="70" height="20" rx="10" fill="#0c2b22" stroke="#56b98a"/>
        <text x="1046" y="285" fill="#56b98a">✓ cited</text>
      </g>
    </g>

    <rect width="1200" height="360" fill="url(#fade)"/>

    <!-- mark: [B] source bracket (docs/brand/mark-source-tag.svg), primary colorway -->
    <g transform="translate(80,60)" fill="none" stroke="#f2b134" stroke-width="6" stroke-linecap="square" stroke-linejoin="miter">
      <polyline points="24,0 8,0 8,72 24,72"/>
      <polyline points="48,0 64,0 64,72 48,72"/>
      <text x="36" y="38" text-anchor="middle" dominant-baseline="central" font-family="'Helvetica Neue',Arial,sans-serif" font-weight="700" font-size="34" fill="#eaf2f8" stroke="none">B</text>
    </g>

    <!-- wordmark -->
    <text x="180" y="150" fill="#eaf2f8" font-size="86" font-weight="700" letter-spacing="1">BEHOLDEN</text>
    <rect x="182" y="172" width="150" height="6" fill="#f2b134"/>
    <text x="184" y="214" fill="#f2b134" font-size="23" font-weight="700" font-family="ui-monospace,'SF Mono',Menlo,monospace" letter-spacing="0.5">power, on the public record</text>
    <text x="182" y="250" fill="#cddae4" font-size="21">See who represents you — and what they've</text>
    <text x="182" y="278" fill="#cddae4" font-size="21">actually done. <tspan fill="#8ba3b4">Every fact linked to its source.</tspan></text>

    <!-- brutalist frame accents -->
    <rect x="0" y="0" width="1200" height="6" fill="#f2b134"/>
    <rect x="0" y="354" width="1200" height="6" fill="#17384f"/>
  </g>
</svg>
